<mxfile host="app.diagrams.net" agent="Mozilla/5.0 (Macintosh; Intel Mac OS X 10_15_7) AppleWebKit/537.36 (KHTML, like Gecko) Chrome/127.0.0.0 Safari/537.36" version="24.7.7">
  <diagram name="第 1 页" id="sY6C_sAz_lnHl2QLxVrH">
    <mxGraphModel dx="954" dy="606" grid="1" gridSize="10" guides="1" tooltips="1" connect="1" arrows="1" fold="1" page="1" pageScale="1" pageWidth="827" pageHeight="1169" math="0" shadow="0">
      <root>
        <mxCell id="0" />
        <mxCell id="1" parent="0" />
        <mxCell id="KegSM5GNRvsRBGRQ8GGU-1" value="" style="rounded=0;whiteSpace=wrap;html=1;fillColor=#dae8fc;strokeColor=#6c8ebf;" vertex="1" parent="1">
          <mxGeometry x="250" y="130" width="100" height="380" as="geometry" />
        </mxCell>
        <mxCell id="KegSM5GNRvsRBGRQ8GGU-2" value="" style="rounded=0;whiteSpace=wrap;html=1;fillColor=#d5e8d4;strokeColor=#82b366;" vertex="1" parent="1">
          <mxGeometry x="350" y="220" width="90" height="290" as="geometry" />
        </mxCell>
        <mxCell id="KegSM5GNRvsRBGRQ8GGU-3" value="" style="rounded=0;whiteSpace=wrap;html=1;fillColor=#ffe6cc;strokeColor=#d79b00;" vertex="1" parent="1">
          <mxGeometry x="440" y="300" width="90" height="210" as="geometry" />
        </mxCell>
        <mxCell id="KegSM5GNRvsRBGRQ8GGU-4" value="" style="rounded=0;whiteSpace=wrap;html=1;fillColor=#fff2cc;strokeColor=#d6b656;" vertex="1" parent="1">
          <mxGeometry x="530" y="360" width="90" height="150" as="geometry" />
        </mxCell>
        <mxCell id="KegSM5GNRvsRBGRQ8GGU-5" value="" style="rounded=0;whiteSpace=wrap;html=1;fillColor=#f8cecc;strokeColor=#b85450;" vertex="1" parent="1">
          <mxGeometry x="620" y="420" width="90" height="90" as="geometry" />
        </mxCell>
        <mxCell id="KegSM5GNRvsRBGRQ8GGU-6" value="" style="rounded=0;whiteSpace=wrap;html=1;fillColor=#f5f5f5;fontColor=#333333;strokeColor=#666666;" vertex="1" parent="1">
          <mxGeometry x="150" y="50" width="100" height="460" as="geometry" />
        </mxCell>
        <mxCell id="KegSM5GNRvsRBGRQ8GGU-8" value="1.Gating Distance内开启learning计算" style="text;html=1;align=center;verticalAlign=middle;resizable=0;points=[];autosize=1;strokeColor=none;fillColor=none;fontSize=14;fontStyle=1" vertex="1" parent="1">
          <mxGeometry x="75" y="20" width="250" height="30" as="geometry" />
        </mxCell>
        <mxCell id="KegSM5GNRvsRBGRQ8GGU-9" value="2.Inplace-Infer减少动态内存审申请次数" style="text;html=1;align=center;verticalAlign=middle;resizable=0;points=[];autosize=1;strokeColor=none;fillColor=none;fontSize=14;fontStyle=1" vertex="1" parent="1">
          <mxGeometry x="180" y="100" width="270" height="30" as="geometry" />
        </mxCell>
        <mxCell id="KegSM5GNRvsRBGRQ8GGU-10" value="3.配合Inplace-Infer对关联链路做改造" style="text;html=1;align=center;verticalAlign=middle;resizable=0;points=[];autosize=1;strokeColor=none;fillColor=none;fontSize=14;fontStyle=1" vertex="1" parent="1">
          <mxGeometry x="270" y="190" width="250" height="30" as="geometry" />
        </mxCell>
        <mxCell id="KegSM5GNRvsRBGRQ8GGU-11" value="4.优化特征计算，去点云依赖" style="text;html=1;align=center;verticalAlign=middle;resizable=0;points=[];autosize=1;strokeColor=none;fillColor=none;fontStyle=1;fontSize=14;" vertex="1" parent="1">
          <mxGeometry x="385" y="270" width="200" height="30" as="geometry" />
        </mxCell>
        <mxCell id="KegSM5GNRvsRBGRQ8GGU-12" value="5.Batch并行推理" style="text;html=1;align=center;verticalAlign=middle;resizable=0;points=[];autosize=1;strokeColor=none;fillColor=none;fontSize=14;fontStyle=1" vertex="1" parent="1">
          <mxGeometry x="510" y="330" width="130" height="30" as="geometry" />
        </mxCell>
        <mxCell id="KegSM5GNRvsRBGRQ8GGU-13" value="6.模型剪枝" style="text;html=1;align=center;verticalAlign=middle;resizable=0;points=[];autosize=1;strokeColor=none;fillColor=none;fontSize=14;fontStyle=1" vertex="1" parent="1">
          <mxGeometry x="620" y="390" width="90" height="30" as="geometry" />
        </mxCell>
        <mxCell id="KegSM5GNRvsRBGRQ8GGU-15" value="" style="endArrow=classic;html=1;rounded=0;strokeWidth=2;strokeColor=#4C0099;" edge="1" parent="1">
          <mxGeometry width="50" height="50" relative="1" as="geometry">
            <mxPoint x="89.5" y="188" as="sourcePoint" />
            <mxPoint x="89.5" y="408" as="targetPoint" />
          </mxGeometry>
        </mxCell>
        <mxCell id="KegSM5GNRvsRBGRQ8GGU-17" value="模测&amp;amp;HIL符合准出" style="text;html=1;align=center;verticalAlign=middle;resizable=0;points=[];autosize=1;strokeColor=none;fillColor=none;fontStyle=1;fontSize=14;" vertex="1" parent="1">
          <mxGeometry x="20" y="408" width="140" height="30" as="geometry" />
        </mxCell>
      </root>
    </mxGraphModel>
  </diagram>
</mxfile>
